<?xml version="1.0" encoding="utf-8"?>
<!-- Generator: Adobe Illustrator 16.0.3, SVG Export Plug-In . SVG Version: 6.00 Build 0)  -->
<!DOCTYPE svg PUBLIC "-//W3C//DTD SVG 1.1//EN" "http://www.w3.org/Graphics/SVG/1.1/DTD/svg11.dtd">
<svg version="1.1" id="Ebene_1" xmlns="http://www.w3.org/2000/svg" xmlns:xlink="http://www.w3.org/1999/xlink" x="0px" y="0px"
	 width="69px" height="73px" viewBox="0 0 69 73" enable-background="new 0 0 69 73" xml:space="preserve">
<g>
	<polygon fill="#004992" points="69,32.111 69,27.282 60.375,27.282 60.375,-0.318 0,-0.318 0,60.058 60.375,60.058 60.375,49.707 
		69,49.707 69,44.877 60.375,44.877 60.375,40.909 68.138,40.909 68.138,36.08 60.375,36.08 60.375,32.111 69,32.111 	"/>
	<path fill="#FFFFFF" d="M25.765,50.027c-7.026,0-8.517-3.844-8.517-7.953V27.326h3.612v14.482c0,2.983,0.994,5.236,5.137,5.236
		c3.646,0,5.303-1.524,5.303-5.7V27.326h3.546V41.08C34.845,47.045,31.63,50.027,25.765,50.027L25.765,50.027z"/>
	<polygon fill="#FFFFFF" points="51.25,49.696 43.131,38.76 43.131,49.696 39.519,49.696 39.519,27.326 43.131,27.326 
		43.131,37.699 51.283,27.326 55.724,27.326 46.843,38.13 56.056,49.696 51.25,49.696 	"/>
	<polygon fill="#878787" points="4.032,72.92 4.032,70.067 0.7,70.067 0.7,72.92 0,72.92 0,66.864 0.7,66.864 0.7,69.493 
		4.032,69.493 4.032,66.864 4.723,66.864 4.723,72.92 4.032,72.92 	"/>
	<path fill="#878787" d="M11.776,68.426c-0.1-0.296-0.191-0.565-0.264-0.816h-0.018c-0.073,0.251-0.164,0.521-0.254,0.799
		l-0.909,2.476h2.352L11.776,68.426L11.776,68.426z M13.401,72.92l-0.526-1.49h-2.733l-0.545,1.49H8.879l2.271-6.056h0.772
		l2.271,6.056H13.401L13.401,72.92z"/>
	<path fill="#878787" d="M24.396,72.92l-0.545-3.741c-0.1-0.69-0.163-1.201-0.2-1.533h-0.018c-0.055,0.251-0.154,0.609-0.3,1.031
		L21.89,72.92h-0.772l-1.371-3.975c-0.164-0.475-0.291-0.915-0.391-1.3h-0.009c-0.036,0.476-0.091,0.986-0.163,1.597l-0.445,3.678
		h-0.717l0.872-6.056h0.881l1.408,4.1c0.1,0.296,0.245,0.763,0.345,1.175h0.009c0.118-0.412,0.218-0.753,0.336-1.112l1.435-4.162
		h0.909l0.908,6.056H24.396L24.396,72.92z"/>
	<path fill="#878787" d="M30.95,70.049c-0.109,0-0.445,0-0.59,0.009v2.287c0.164,0.019,0.554,0.046,0.835,0.046
		c1.09,0,1.553-0.53,1.553-1.212C32.749,70.345,32.031,70.049,30.95,70.049L30.95,70.049z M31.232,67.385
		c-0.3,0-0.618,0.01-0.872,0.018v2.117c0.182,0.009,0.345,0.009,0.581,0.009c1.09,0,1.617-0.421,1.617-1.139
		C32.558,67.815,32.258,67.385,31.232,67.385L31.232,67.385z M31.123,72.946c-0.445,0-0.936-0.019-1.462-0.026v-6.056
		c0.418-0.008,0.963-0.027,1.698-0.027c1.308,0,1.925,0.558,1.925,1.436c0,0.664-0.409,1.212-1.108,1.436v0.019
		c0.781,0.09,1.299,0.636,1.299,1.407C33.475,71.906,32.957,72.946,31.123,72.946L31.123,72.946z"/>
	<path fill="#878787" d="M40.274,73c-1.897,0-2.262-1.049-2.262-2.09v-4.046h0.699v3.982c0,0.87,0.291,1.589,1.617,1.589
		c1.126,0,1.681-0.467,1.681-1.758v-3.813h0.681v3.759C42.69,72.175,41.863,73,40.274,73L40.274,73z"/>
	<path fill="#878787" d="M48.845,67.385c-0.227,0-0.408,0.01-0.59,0.027v2.18c0.1,0.009,0.281,0.018,0.554,0.018
		c0.944,0,1.489-0.476,1.489-1.148C50.298,67.672,49.789,67.385,48.845,67.385L48.845,67.385z M50.516,72.92l-2.152-2.799h-0.108
		v2.799h-0.7v-6.056c0.391-0.018,0.79-0.027,1.444-0.027c1.153,0,2.025,0.396,2.025,1.525c0,1.077-0.899,1.669-1.916,1.714
		c0.182,0.206,0.39,0.431,0.545,0.628l1.761,2.216H50.516L50.516,72.92z"/>
	<path fill="#878787" d="M58.359,73c-1.889,0-3.024-1.112-3.024-2.978c0-1.857,1.091-3.238,3.252-3.238
		c0.581,0,1.144,0.099,1.68,0.26l-0.153,0.628c-0.51-0.197-1.063-0.305-1.608-0.305c-1.734,0-2.434,1.22-2.434,2.548
		c0,1.596,0.908,2.493,2.397,2.493c0.445,0,0.826-0.063,1.189-0.18v-2.359h0.699v2.79C59.74,72.884,59.005,73,58.359,73L58.359,73z"
		/>
</g>
</svg>
