<?xml version="1.0" encoding="UTF-8"?><svg id="UKER-Logo_RGB" xmlns="http://www.w3.org/2000/svg" viewBox="0 0 371.255 102.649"><rect x="302.822" y="34.216" width="34.216" height="34.216" fill="#2761ab"/><rect x="302.822" y="68.432" width="34.216" height="34.216" fill="#00B1EB"/><rect x="302.822" width="34.216" height="34.216" fill="#00B1EB"/><rect x="337.038" y="34.217" width="34.216" height="34.215" fill="#00a579"/><rect x="268.606" y="34.216" width="34.216" height="34.216" fill="#00a579"/><g><path d="M23.361,17.088v18.218c0,2.944-.336,5.133-1.007,6.569-.672,1.436-1.912,2.615-3.719,3.537-1.807,.922-4.118,1.383-6.933,1.383s-5.054-.415-6.719-1.243c-1.665-.828-2.911-2.007-3.74-3.537-.828-1.53-1.243-3.765-1.243-6.708V17.088H7.437v18.218c0,1.572,.132,2.729,.396,3.472,.264,.743,.793,1.332,1.586,1.768s1.768,.654,2.926,.654c1.286,0,2.332-.214,3.139-.643,.807-.429,1.343-.996,1.608-1.704,.264-.708,.396-1.89,.396-3.547V17.088h5.874Z" fill="#2f2912"/><path d="M48.376,46.343h-6.387v-12.152c0-1.472-.057-2.479-.171-3.022-.114-.543-.393-1.004-.836-1.383-.443-.379-1.001-.568-1.671-.568-2.243,0-3.364,1.658-3.364,4.972v12.152h-6.387V24.695h5.937v3.665c.985-1.744,1.958-2.864,2.915-3.364,.957-.5,1.993-.751,3.108-.751,2.058,0,3.715,.554,4.972,1.661,1.258,1.107,1.886,3.282,1.886,6.526v13.91h-.001Z" fill="#2f2912"/><path d="M60.913,16.488v6.387h-6.387v-6.387h6.387Zm0,8.208v21.647h-6.387V24.696s6.387,0,6.387,0Z" fill="#2f2912"/><path d="M81.3,32.039l7.045,14.304h-7.048l-4.52-9.807-3.756,4.319v5.488h-6.022V17.088h6.022v17.532l.942-1.179c.399-.543,.734-.979,1.006-1.307l6.315-7.437h6.225l-6.21,7.342h.001Z" fill="#2f2912"/><path d="M91.709,46.343V17.088h6.387v29.255h-6.387Z" fill="#2f2912"/><path d="M110.568,16.488v6.387h-6.387v-6.387h6.387Zm0,8.208v21.647h-6.387V24.696s6.387,0,6.387,0Z" fill="#2f2912"/><path d="M135.47,46.343h-6.387v-12.152c0-1.472-.058-2.479-.171-3.022-.114-.543-.393-1.004-.836-1.383-.443-.379-1.001-.568-1.671-.568-2.243,0-3.364,1.658-3.364,4.972v12.152h-6.387V24.695h5.937v3.665c.985-1.744,1.958-2.864,2.915-3.364,.957-.5,1.993-.751,3.108-.751,2.058,0,3.714,.554,4.972,1.661,1.258,1.107,1.886,3.282,1.886,6.526v13.91h-.001Z" fill="#2f2912"/><path d="M148.007,16.488v6.387h-6.387v-6.387h6.387Zm0,8.208v21.647h-6.387V24.696s6.387,0,6.387,0Z" fill="#2f2912"/><path d="M168.395,32.039l7.045,14.304h-7.049l-4.518-9.807-3.757,4.319v5.488h-6.022V17.088h6.022v17.532l.94-1.179c.401-.543,.735-.979,1.007-1.307l6.314-7.437h6.226l-6.209,7.342h0Z" fill="#2f2912"/><path d="M197.036,24.696v21.647h-5.916v-3.686c-1.115,2.758-3.244,4.137-6.387,4.137-1.628,0-2.879-.303-3.751-.911-.871-.608-1.497-1.436-1.875-2.487-.379-1.05-.568-2.569-.568-4.554v-14.146h6.194v14.146c0,1.943,.8,2.915,2.401,2.915,.814,0,1.522-.233,2.122-.697s.983-.961,1.147-1.489,.247-1.436,.247-2.721v-12.152h6.387v-.002Z" fill="#2f2912"/><path d="M234.113,46.343h-6.387v-11.981c0-1.686-.05-2.783-.15-3.29s-.361-.929-.782-1.264-1.004-.504-1.747-.504c-.7,0-1.414,.25-2.143,.751-.729,.5-1.093,1.937-1.093,4.308v11.981h-6.387v-11.981c0-1.728-.078-2.848-.236-3.355-.158-.507-.453-.918-.89-1.232-.437-.314-.989-.472-1.661-.472-1.101,0-1.918,.346-2.454,1.039-.536,.694-.803,2.033-.803,4.018v11.981h-6.194V24.696h6.001v3.301c1.016-2.5,3.047-3.751,6.097-3.751,2.763,0,4.759,1.251,5.989,3.751,1.2-2.5,3.294-3.751,6.281-3.751,1.429,0,2.658,.293,3.686,.879s1.765,1.35,2.209,2.293c.442,.943,.664,2.564,.664,4.866v14.059h0Z" fill="#2f2912"/></g><g><path d="M20.948,61.853H7.018v6.001h10.951v5.509H7.018v6.387h13.931v5.786H.052v-29.255H20.948v5.572Z" fill="#2f2912"/><path d="M31.835,85.536h-6.194v-21.647h5.851v4.029c.9-3,2.457-4.501,4.672-4.501,.314,0,.7,.022,1.158,.065v6.301c-1.3,0-2.311,.201-3.033,.6-.722,.399-1.311,1.118-1.768,2.154-.458,1.036-.686,2.433-.686,4.19v8.808h0Z" fill="#2f2912"/><path d="M41.713,85.536v-29.255h6.387v29.255h-6.387Z" fill="#2f2912"/><path d="M73.068,85.536h-6.194c-.201-.857-.3-1.986-.3-3.386-1.084,1.543-2.165,2.569-3.243,3.076-1.078,.507-2.3,.76-3.67,.76-2.026,0-3.663-.55-4.912-1.65-1.249-1.101-1.872-2.58-1.872-4.437,0-1.357,.364-2.607,1.092-3.751,.728-1.143,1.897-2.039,3.509-2.69,1.612-.651,4.551-1.132,8.816-1.446v-1.243c0-2.1-1.047-3.15-3.141-3.15-2.236,0-3.483,1.05-3.739,3.15l-5.894-.557c.386-2.457,1.551-4.201,3.494-5.23,1.943-1.029,4.144-1.543,6.602-1.543,1.472,0,2.857,.171,4.158,.515,1.3,.342,2.314,.857,3.043,1.543,.729,.686,1.221,1.411,1.479,2.175s.386,2.097,.386,3.998v9.816c0,1.886,.128,3.236,.386,4.05h-.002Zm-6.773-10.372c-4.457,.442-6.687,1.793-6.687,4.05,0,.757,.235,1.411,.706,1.961,.47,.55,1.139,.825,2.008,.825,1.125,0,2.068-.469,2.831-1.403,.762-.936,1.143-2.089,1.143-3.461v-1.972h-.001Z" fill="#2f2912"/><path d="M97.65,85.536h-6.387v-12.152c0-1.472-.057-2.479-.171-3.022-.114-.543-.393-1.004-.836-1.383-.443-.379-1.001-.568-1.671-.568-2.243,0-3.364,1.658-3.364,4.972v12.152h-6.387v-21.647h5.937v3.665c.985-1.744,1.958-2.864,2.915-3.364,.957-.5,1.993-.751,3.108-.751,2.058,0,3.715,.554,4.972,1.661,1.258,1.107,1.886,3.282,1.886,6.526v13.91h-.001Z" fill="#2f2912"/><path d="M125.425,64.382c-.672-.143-1.236-.214-1.693-.214-1.414,0-2.243,.629-2.487,1.886,1.158,1.214,1.736,2.585,1.736,4.115,0,2.043-.854,3.673-2.561,4.886s-4.169,1.822-7.384,1.822c-1.143,0-2.258-.109-3.344-.324-.729,.429-1.093,.98-1.093,1.651,0,.743,.307,1.237,.922,1.48,.615,.244,2.093,.421,4.437,.536,3.329,.171,5.623,.379,6.88,.621,1.258,.244,2.314,.828,3.172,1.758,.858,.929,1.286,2.086,1.286,3.472,0,1.986-.918,3.665-2.754,5.037-1.836,1.372-5.091,2.058-9.762,2.058-4.387,0-7.345-.476-8.873-1.428-1.53-.95-2.293-2.156-2.293-3.616,0-1.931,1.236-3.232,3.708-3.905-1.829-.914-2.743-2.2-2.743-3.858,0-2.072,1.443-3.686,4.329-4.844-2.558-1.057-3.836-2.819-3.836-5.289,0-2.013,.882-3.646,2.647-4.904,1.765-1.256,4.204-1.884,7.319-1.884,1.972,0,3.879,.314,5.723,.943,.128-1.229,.489-2.24,1.082-3.033,.593-.793,1.853-1.19,3.783-1.19,.629,0,1.229,.057,1.801,.171v4.052Zm-16.696,21.004c-.257,0-.583,.171-.976,.515-.393,.342-.589,.757-.589,1.243,0,.972,.621,1.578,1.864,1.822,1.243,.244,2.701,.364,4.372,.364,2.186,0,3.719-.164,4.597-.493,.878-.329,1.318-.857,1.318-1.586,0-.557-.368-.985-1.104-1.286-.736-.3-2.697-.45-5.883-.45l-1.286,.022c-.786,0-1.315-.022-1.586-.065-.3-.057-.543-.086-.729-.086h.001Zm4.254-18.497c-1.097,0-1.955,.297-2.575,.89-.619,.593-.929,1.375-.929,2.347,0,2.2,1.175,3.301,3.526,3.301,1.139,0,2.033-.322,2.681-.965s.972-1.422,.972-2.336c0-.857-.306-1.611-.918-2.262-.613-.651-1.532-.976-2.757-.976h.001Z" fill="#2f2912"/><path d="M148.356,75.785h-13.931c-.014,.386-.022,.721-.022,1.007,0,1.543,.41,2.708,1.232,3.494,.822,.786,1.804,1.179,2.947,1.179,2.129,0,3.407-1.136,3.836-3.407l5.786,.429c-1.615,5.002-4.894,7.501-9.838,7.501-2.157,0-3.99-.432-5.498-1.297-1.508-.865-2.751-2.126-3.729-3.783-.978-1.657-1.468-3.643-1.468-5.959,0-3.443,.983-6.223,2.947-8.338,1.964-2.115,4.49-3.172,7.576-3.172,2.786,0,5.176,.983,7.169,2.947,1.993,1.964,2.99,5.098,2.99,9.398h0Zm-13.953-3.708h7.695c-.201-2.972-1.422-4.457-3.665-4.457-2.401,0-3.743,1.486-4.029,4.457Z" fill="#2f2912"/><path d="M172.082,85.536h-6.387v-12.152c0-1.472-.058-2.479-.171-3.022-.115-.543-.394-1.004-.836-1.383-.443-.379-1.001-.568-1.671-.568-2.244,0-3.364,1.658-3.364,4.972v12.152h-6.387v-21.647h5.937v3.665c.985-1.744,1.957-2.864,2.915-3.364,.956-.5,1.993-.751,3.108-.751,2.058,0,3.714,.554,4.972,1.661,1.256,1.107,1.886,3.282,1.886,6.526v13.91h-.001Z" fill="#2f2912"/></g></svg>
