<svg viewBox="0 0 255 32" xmlns="http://www.w3.org/2000/svg" xmlns:xlink="http://www.w3.org/1999/xlink">
  <defs>
    <linearGradient x1="100%" y1="50%" x2="0%" y2="50%" id="b">
      <stop stop-color="#003D4D" offset="0%"/>
      <stop stop-color="#8EB8C8" offset="100%"/>
    </linearGradient>
  </defs>
  <g fill="none" fill-rule="evenodd">
    <g fill="#000">
      <path d="M1.362 8.043c0 2.428.689 3.683 3.048 3.683 2.195 0 2.982-1.587 2.982-3.822V2.758c.124.014.247.042.385.042.125 0 .248-.028.386-.042V8.25c0 2.73-1.6 4.112-4.028 4.112-1.366 0-2.277-.317-2.994-.968C.27 10.61.16 9.38.147 8.276V2.758c.193.014.4.042.607.042.192 0 .387-.028.608-.042v5.285zM19.104 12.196h-.413a16.388 16.388 0 0 0-.717-.841l-5.96-6.595h-.139v7.436c-.138-.014-.263-.042-.386-.042-.138 0-.262.028-.387.042V2.758h.538l6.553 7.105h.138l.002-7.105c.123.014.247.042.386.042.122 0 .248-.028.385-.042v9.438zM21.904 2.759c.193.014.4.042.607.042.194 0 .387-.028.608-.042v9.437c-.22-.014-.414-.042-.608-.042-.207 0-.414.028-.607.042V2.76zM31.714 5.284l.827-2.304.098-.22c.165.012.332.04.51.04.153 0 .318-.028.497-.04-.442.84-3.49 7.905-3.987 9.436-.098-.013-.194-.04-.277-.04-.096 0-.192.027-.289.04-1.572-3.243-3.588-8.265-4.195-9.436.207.012.442.04.663.04.22 0 .428-.028.675-.04.18.427.345.881.51 1.337l.926 2.414 1.696 4.18h.125c.263-.564.552-1.104.773-1.668l1.448-3.74zM36.35 6.87h2.138c.414 0 .814-.056 1.227-.07-.012.112-.04.235-.04.36 0 .11.028.234.04.387-.413-.014-.813-.07-1.227-.07H36.35v4.028c.841.028 1.668-.026 2.497-.056a9.735 9.735 0 0 0 1.27-.123c-.014.153-.042.277-.042.415 0 .137.028.276.042.414h-4.98V2.758h4.897c-.014.152-.042.277-.042.414 0 .138.028.277.042.413a9.71 9.71 0 0 0-1.243-.15l-1.38-.028H36.35V6.87zM42.186 2.759h2.925c2.125 0 3.063.703 3.063 2.096 0 1.6-1.436 2.374-2.83 2.622l2.844 3.601.662.773.262.345c-.29-.014-.539-.042-.801-.042s-.537.028-.786.042c-.303-.427-.58-.815-.87-1.2l-1.628-2.111-1.104-1.297H43.4v4.608c-.222-.014-.415-.042-.608-.042-.207 0-.413.028-.606.042V2.76zM43.4 7.062c.193.016 1.077.07 1.78-.068 1.008-.207 1.765-.896 1.765-1.972 0-.952-.482-1.574-1.516-1.74-.512-.082-1.45-.041-2.029-.013v3.793zM50.533 10.333c.538.884 1.158 1.436 2.235 1.436 1.118 0 1.917-.926 1.917-2.014 0-2.567-4.317-1.436-4.317-4.554 0-1.78 1.406-2.65 3.062-2.65.663 0 1.462.208 1.972.663-.165.358-.26.744-.371 1.131h-.139c-.29-.745-.897-1.2-1.71-1.2-.952 0-1.74.634-1.74 1.614 0 2.538 4.348 1.518 4.348 4.456 0 1.974-1.532 3.146-3.41 3.146-.675 0-1.779-.29-2.247-.8.137-.4.207-.814.261-1.228h.139zM57.859 2.759c.194.014.401.042.608.042.193 0 .386-.028.607-.042v9.437c-.221-.014-.414-.042-.607-.042-.207 0-.414.028-.608.042V2.76zM65.033 12.223c-.22-.014-.413-.042-.606-.042-.207 0-.414.028-.608.042V3.42c-1.394 0-2.235.083-3.02.167.013-.139.041-.277.041-.415 0-.137-.028-.262-.042-.414h7.119c-.014.152-.042.277-.042.414 0 .138.028.276.042.415a23.75 23.75 0 0 0-2.884-.167v8.803zM77.313 12.196c-.263-.014-.483-.042-.719-.042-.261 0-.496.028-.73.042-.4-1.146-.897-2.47-1.449-3.725h-3.504c-.484 1.213-.98 2.426-1.366 3.725-.193-.014-.345-.042-.51-.042-.18 0-.333.028-.483.042l4.305-9.644h.317l4.139 9.644zm-6.376-11.12c0-.332.291-.635.635-.635a.64.64 0 0 1 .635.635.65.65 0 0 1-.635.634.662.662 0 0 1-.635-.634zm1.74 3.283L71.171 7.89h3.036l-1.532-3.532zm.967-3.283a.65.65 0 0 1 .634-.635.65.65 0 0 1 .633.635.66.66 0 0 1-.633.634.66.66 0 0 1-.634-.634zM82.183 12.223c-.221-.014-.414-.042-.607-.042-.207 0-.413.028-.606.042V3.42c-1.395 0-2.237.083-3.022.167.014-.139.04-.277.04-.415 0-.137-.026-.262-.04-.414h7.118c-.014.152-.042.277-.042.414 0 .138.028.276.042.415a23.772 23.772 0 0 0-2.883-.167v8.803zM86.501 10.333c.538.884 1.159 1.436 2.235 1.436 1.117 0 1.918-.926 1.918-2.014 0-2.567-4.318-1.436-4.318-4.554 0-1.78 1.406-2.65 3.063-2.65.66 0 1.462.208 1.972.663-.165.358-.262.744-.372 1.131h-.138c-.29-.745-.896-1.2-1.711-1.2-.952 0-1.74.634-1.74 1.614 0 2.538 4.348 1.518 4.348 4.456 0 1.974-1.532 3.146-3.408 3.146-.676 0-1.78-.29-2.249-.8.139-.4.207-.814.262-1.228h.138zM102.975 2.759c.359 3.407.745 6.801 1.116 9.437-.247-.014-.44-.042-.648-.042-.22 0-.44.028-.647.042-.237-2.774-.512-5.754-.705-7.12-1.6 2.857-2.787 5.064-3.614 6.968h-.153l-.757-1.56c-.885-1.82-1.851-3.613-2.789-5.408-.303 2.69-.675 5.423-.675 7.12-.18-.014-.331-.042-.484-.042-.178 0-.33.028-.496.042.36-2.22 1.187-7.99 1.325-9.437h.36c1.102 2.194 2.426 4.787 3.903 7.229 1.31-2.36 2.58-4.76 3.973-7.23h.29zM107.362 6.87h2.138c.414 0 .814-.056 1.228-.07-.013.112-.04.235-.04.36 0 .11.027.234.04.387-.414-.014-.814-.07-1.228-.07h-2.138v4.028c.841.028 1.669-.026 2.496-.056.43-.012.843-.054 1.27-.123-.013.153-.041.277-.041.415 0 .137.028.276.042.414h-4.982V2.758h4.898c-.014.152-.04.277-.04.414 0 .138.026.277.04.413a9.653 9.653 0 0 0-1.241-.15l-1.38-.028h-1.062V6.87zM113.336 2.759h3.132c1.434 0 2.83-.139 3.988.827 1.034.855 1.474 2.139 1.474 3.45 0 1.917-.703 3.159-1.737 4.068-1.173 1.022-2.705 1.05-4.167 1.05h-2.69V2.76zm1.214 8.775c1.213.068 2.924.235 4.043-.332 1.49-.745 1.986-2.277 1.986-3.96 0-2.925-1.201-3.987-4.291-3.987-.565 0-1.145.042-1.738.056v8.223zM124.138 2.759c.194.014.401.042.608.042.193 0 .386-.028.606-.042v9.437c-.22-.014-.413-.042-.606-.042-.207 0-.414.028-.608.042V2.76zM131.052 6.249c.663-.952 1.335-1.904 1.958-2.87v-.028l-1.573.014c-1.324 0-2.856.153-3.836.221.014-.138.042-.275.042-.413 0-.139-.028-.263-.042-.414h7.257v.261a130.626 130.626 0 0 0-6.017 8.5v.026h2.1c1.269-.026 2.788-.136 3.861-.22-.012.152-.04.276-.04.415 0 .138.028.275.04.414h-7.765v-.304l4.015-5.602zM136.68 2.759c.193.014.401.042.606.042.193 0 .388-.028.607-.042v9.437c-.22-.014-.414-.042-.607-.042-.205 0-.413.028-.606.042V2.76zM148.726 12.196h-.418a13.606 13.606 0 0 0-.716-.841l-5.96-6.595h-.137v7.436c-.137-.014-.263-.042-.385-.042-.139 0-.262.028-.388.042V2.758h.538l6.556 7.105h.137V2.758c.121.014.247.042.387.042.123 0 .246-.028.386-.042v9.438zM76.678 23.178c-.773-.883-1.932-1.336-3.105-1.336-2.345 0-3.972 1.545-3.972 4.33 0 2.731 1.406 4.43 4.125 4.43.745 0 1.518-.139 2.152-.47v-3.546c.193.015.4.04.607.04.193 0 .386-.025.606-.04v3.905c-1.2.414-2.468.635-3.753.635-3.49 0-5.09-2.084-5.09-4.884 0-3.229 2.317-4.927 5.38-4.927 2.056 0 3.215.61 3.52.802-.125.344-.221.702-.318 1.061h-.152zM78.954 26.243c0-3.022 2.249-4.928 5.104-4.928 2.595 0 5.23 1.41 5.23 4.72 0 3.077-2.18 5.091-5.256 5.091-3.049 0-5.078-1.931-5.078-4.883m8.112-3.133c-.689-.87-1.767-1.339-2.87-1.339-2.427 0-3.89 1.835-3.89 4.638 0 2.798 1.712 4.263 3.768 4.263 2.91 0 3.96-3.01 3.862-4.527 0-1.144-.151-2.113-.87-3.035m-4.94-3.27c0-.33.291-.635.637-.635.345 0 .634.289.634.634a.65.65 0 0 1-.634.635.662.662 0 0 1-.636-.635m2.706 0c0-.33.29-.634.634-.634.344 0 .635.305.635.634a.662.662 0 0 1-.635.635.66.66 0 0 1-.634-.635M94.655 30.987c-.22-.015-.414-.04-.608-.04-.207 0-.414.025-.607.04v-8.803c-1.393 0-2.235.083-3.022.167.014-.139.042-.277.042-.415 0-.137-.028-.26-.042-.414h7.12c-.013.154-.041.277-.041.414 0 .138.028.276.042.415a23.793 23.793 0 0 0-2.884-.167v8.803zM102.602 30.987c-.221-.015-.414-.04-.608-.04-.207 0-.414.025-.605.04v-8.803c-1.395 0-2.237.083-3.024.167.016-.139.042-.277.042-.415 0-.137-.026-.26-.042-.414h7.12c-.014.154-.042.277-.042.414 0 .138.028.276.042.415a23.75 23.75 0 0 0-2.883-.167v8.803zM107.348 21.523c.193.015.4.042.607.042.194 0 .385-.027.608-.042v9.437c-.223-.012-.414-.04-.608-.04-.207 0-.414.028-.607.04v-9.437zM119.531 30.96h-.414c-.152-.193-.429-.524-.718-.84l-5.96-6.596h-.139v7.436c-.137-.012-.261-.04-.385-.04-.139 0-.263.028-.386.04v-9.438h.536l6.555 7.105h.138v-7.105c.124.016.249.044.387.044.123 0 .248-.028.386-.044v9.438zM130.47 23.178c-.77-.883-1.93-1.336-3.102-1.336-2.346 0-3.974 1.545-3.974 4.33 0 2.731 1.406 4.43 4.125 4.43.743 0 1.516-.139 2.152-.47v-3.546c.192.015.4.04.607.04.196 0 .389-.025.606-.04v3.905c-1.2.414-2.468.635-3.751.635-3.492 0-5.09-2.084-5.09-4.884 0-3.229 2.315-4.927 5.378-4.927 2.056 0 3.216.61 3.52.802-.124.344-.223.702-.318 1.061h-.152zM134.611 25.636h2.137c.414 0 .814-.055 1.229-.07-.014.11-.04.233-.04.358 0 .11.026.236.04.387-.415-.013-.815-.069-1.229-.069h-2.137v4.029c.84.028 1.666-.028 2.495-.056.43-.013.843-.055 1.272-.123-.015.15-.042.277-.042.415 0 .137.027.275.042.412h-4.98v-9.395h4.898c-.017.152-.044.275-.044.413 0 .137.027.276.044.414a9.376 9.376 0 0 0-1.243-.15l-1.378-.029h-1.064v3.464zM148.726 30.96h-.418a13.655 13.655 0 0 0-.716-.84l-5.96-6.596h-.137v7.436c-.137-.012-.263-.04-.385-.04-.139 0-.262.028-.388.04v-9.438h.538l6.556 7.105h.137v-7.105c.121.016.247.044.387.044.123 0 .246-.028.386-.044v9.438z"/>
    </g>
    <g transform="translate(172.64 1.912)">
      <mask id="c" fill="#fff">
        <path d="M57.488 14.91c0 8.536 5.04 14.684 12.97 14.684 6.837 0 11.658-4.378 11.658-11.623v-3.26H70.262v4.064h7.166v.122c0 3.302-1.973 6.471-6.97 6.471-5.345 0-8.506-4.137-8.506-10.458 0-6.319 3.161-10.44 8.506-10.44 3.155 0 4.94 1.059 6.52 3.353l3.91-2.173C78.786 2.228 75.455.242 70.458.242c-7.93 0-12.97 6.133-12.97 14.668zM48.958.82L42.45 15.84c-.718 1.65-1.564 3.664-1.987 4.83-.38-1.166-1.31-3.22-2.027-4.83L31.795.82h-4.563V29h4.187V14.108c0-1.692-.044-4.148-.086-4.954.336.806 1.183 2.82 1.901 4.43l7.102 15.862 7.188-15.862c.717-1.61 1.56-3.624 1.901-4.43-.044.806-.087 3.262-.087 4.954V29h4.355V.821h-4.735zm-30.475 0V17.33c0 5.151-2.197 7.89-6.846 7.89-4.44 0-6.766-2.86-6.766-8.172V.821H.434v16.346c0 7.77 3.803 12.28 11.119 12.28 7.352 0 11.37-4.309 11.37-12.2V.822h-4.44z" id="a"/>
      </mask>
      <path d="M57.488 14.91c0 8.536 5.04 14.684 12.97 14.684 6.837 0 11.658-4.378 11.658-11.623v-3.26H70.262v4.064h7.166v.122c0 3.302-1.973 6.471-6.97 6.471-5.345 0-8.506-4.137-8.506-10.458 0-6.319 3.161-10.44 8.506-10.44 3.155 0 4.94 1.059 6.52 3.353l3.91-2.173C78.786 2.228 75.455.242 70.458.242c-7.93 0-12.97 6.133-12.97 14.668zM48.958.82L42.45 15.84c-.718 1.65-1.564 3.664-1.987 4.83-.38-1.166-1.31-3.22-2.027-4.83L31.795.82h-4.563V29h4.187V14.108c0-1.692-.044-4.148-.086-4.954.336.806 1.183 2.82 1.901 4.43l7.102 15.862 7.188-15.862c.717-1.61 1.56-3.624 1.901-4.43-.044.806-.087 3.262-.087 4.954V29h4.355V.821h-4.735zm-30.475 0V17.33c0 5.151-2.197 7.89-6.846 7.89-4.44 0-6.766-2.86-6.766-8.172V.821H.434v16.346c0 7.77 3.803 12.28 11.119 12.28 7.352 0 11.37-4.309 11.37-12.2V.822h-4.44z" fill="url(#b)" mask="url(#c)"/>
    </g>
    <path fill="#8FB8C8" d="M158.08 8.39h5.636V2.752h-5.636zM158.08 19.66h5.636v-5.636h-5.636zM158.08 30.94h5.636v-5.636h-5.636z"/>
  </g>
</svg>
