<?xml version="1.0" encoding="UTF-8" standalone="no"?>
<svg
   xmlns:dc="http://purl.org/dc/elements/1.1/"
   xmlns:cc="http://creativecommons.org/ns#"
   xmlns:rdf="http://www.w3.org/1999/02/22-rdf-syntax-ns#"
   xmlns:svg="http://www.w3.org/2000/svg"
   xmlns="http://www.w3.org/2000/svg"
   viewBox="0 0 240 71"
   height="71"
   width="240"
   version="1.1"
   id="svg2">
  <metadata
     id="metadata8">
    <rdf:RDF>
      <cc:Work
         rdf:about="">
        <dc:format>image/svg+xml</dc:format>
        <dc:type
           rdf:resource="http://purl.org/dc/dcmitype/StillImage" />
        <dc:title></dc:title>
      </cc:Work>
    </rdf:RDF>
  </metadata>
  <defs
     id="defs6" />
  <g
     style="display:inline"
     id="layer4">
    <g
       id="g3469">
      <path
         id="path168"
         style="fill:#1c4189;fill-opacity:1;fill-rule:evenodd;stroke:none"
         d="m 122.42022,30.826662 0,-15.59434 0.056,0 3.69554,15.59434 4.0315,0 3.89122,-15.59434 0.0563,0 0,15.59434 4.11519,0 0,-20.21347 -6.57917,0 -3.35929,13.74628 -0.056,0 -3.1639,-13.74628 -6.80315,0 0,20.21347 4.11578,0 z m -24.053947,0 0,-15.59434 0.05599,0 3.695824,15.59434 4.03121,0 3.89122,-15.59434 0.0566,0 0,15.59434 4.11519,0 0,-20.21347 -6.57918,0 -3.35958,13.74628 -0.056,0 -3.1636,-13.74628 -6.803152,0 0,20.21347 4.115485,0 z m -12.579176,-20.21347 0,14.054241 c 0,2.23972 -0.839894,3.471857 -2.687371,3.471857 -1.540099,0 -2.603966,-0.980169 -2.603966,-3.471857 l 0,-14.054241 -4.227471,0 0,14.333914 c 0,3.807815 2.240011,6.215222 6.88743,6.215222 5.151355,0 6.858849,-3.1916 6.858849,-6.215222 l 0,-14.333914 -4.227471,0" />
      <path
         d="m 6.0000299,66.000001 12.4001141,0 0,-12.399823 -12.4001141,0 0,12.399823 z"
         style="fill:#1c4189;fill-opacity:1;fill-rule:nonzero;stroke:none"
         id="path170" />
      <path
         id="path174"
         style="fill:#1c4189;fill-opacity:1;fill-rule:nonzero;stroke:none"
         d="m 51.466602,53.59977 0,-12.400114 12.399823,0 0,24.799937 -24.799646,0 0,-12.399823 12.399823,0 z" />
      <path
         id="path178"
         style="fill:#1c4189;fill-opacity:1;fill-rule:nonzero;stroke:none"
         d="m 18.400114,20.532992 0,12.399823 -12.4001144,0 0,-24.7999374 24.7999374,0 0,12.4001144 -12.399823,0 z" />
      <path
         d="m 134.79907,42.974341 -1.09652,0 0,1.21289 1.09652,0 0,-1.21289 z m -4.96937,10.626712 1.08486,0 0.62992,-2.006416 3.25459,0 0.6066,2.006416 1.20151,0 -2.74132,-8.421988 -1.36483,0 -2.67133,8.421988 z m 4.67774,-2.939632 -2.69466,0 1.31817,-4.490813 1.37649,4.490813 z m -1.76144,-7.68708 -1.09653,0 0,1.21289 1.09653,0 0,-1.21289 z m -42.379406,20.08457 -2.694662,0 1.318168,-4.491105 1.376494,4.491105 z m -4.677747,2.939632 1.084864,0 0.630213,-2.006708 3.254301,0 0.60659,2.006708 1.201517,0 -2.741324,-8.422279 -1.364829,0 -2.671332,8.422279 z m 23.520843,-19.886261 1.62147,0 c 0.82823,0 1.13152,0.676582 1.13152,1.282881 0,0.734908 -0.37328,1.399825 -1.14319,1.399825 l -1.6098,0 0,-2.682706 z m 1.25985,3.616214 c 0.36162,0 1.18985,0.04637 1.2715,1.072907 0.0933,1.120152 0.0233,2.216389 0.32634,2.79965 l 1.11986,0 c -0.16302,-0.524935 -0.27968,-1.842811 -0.29134,-2.204433 -0.0583,-1.691746 -0.40857,-2.018372 -1.37649,-2.17002 0.99154,-0.198017 1.5398,-0.956547 1.5398,-1.948089 0,-1.049869 -0.52493,-2.099446 -2.01808,-2.099446 l -2.90463,0 0,8.421988 1.07319,0 0,-3.872557 1.25985,0 z m 56.37852,-3.616214 1.41149,0 c 1.11986,0 1.64451,0.629921 1.64451,2.332749 l 0,1.703121 c 0,1.959754 -0.54798,2.519684 -2.04112,2.519684 l -1.01488,0 0,-6.555554 z m -1.0732,7.488771 1.93614,0 c 1.4701,0 2.32137,-0.361622 2.77661,-1.084573 0.34995,-0.560221 0.51327,-1.598133 0.51327,-3.394867 0,-0.268008 -0.035,-1.947797 -0.37329,-2.659667 -0.41995,-0.897929 -1.18985,-1.282881 -2.26305,-1.282881 l -2.58968,0 0,8.421988 z m -40.8463,3.975211 -1.0732,0 0,8.422279 1.0732,0 0,-8.422279 z m -2.95771,8.422279 0,-0.933217 -3.33625,0 0,-2.916302 3.03266,0 0,-0.933508 -3.03266,0 0,-2.706036 3.26626,0 0,-0.933216 -4.33975,0 0,8.422279 4.40974,0 z m -10.71537,0 0,-3.849519 2.9513,0 0,3.849519 1.0732,0 0,-8.422279 -1.0732,0 0,3.639252 -2.9513,0 0,-3.639252 -1.0732,0 0,8.422279 1.0732,0 z m -4.36949,-8.422279 0,7.208805 -3.30126,-7.208805 -1.51648,0 0,8.422279 0.95684,0 0,-7.30242 3.34763,7.30242 1.46981,0 0,-8.422279 -0.95654,0 z m -8.102074,0 0,7.208805 -3.301254,-7.208805 -1.516476,0 0,8.422279 0.956547,0 0,-7.30242 3.347622,7.30242 1.469816,0 0,-8.422279 -0.956255,0 z m -21.349078,0.933216 2.33275,7.489063 1.014873,0 2.356663,-7.489063 0.02303,7.489063 1.073491,0 0,-8.422279 -1.773403,0 -2.146398,7.069115 -2.146106,-7.069115 -1.738408,0 0,8.422279 1.0035,0 0,-7.489063 z m 113.608612,-13.330415 0,7.208806 -3.30096,-7.208806 -1.51648,0 0,8.421988 0.95655,0 0,-7.30242 3.34791,7.30242 1.46953,0 0,-8.421988 -0.95655,0 z m -7.16798,0 -1.0732,0 0,8.422279 1.0732,0 0,-8.422279 z m -2.97317,0 -5.0277,0 0,0.933217 3.94284,0 -4.08253,6.275589 0,1.213182 5.26072,0 0,-0.933217 -4.26947,0 4.17614,-6.415863 0,-1.072908 z m -7.02799,0 -1.0732,0 0,8.422279 1.0732,0 0,-8.422279 z m -9.81219,8.421988 0,-0.933217 -3.33625,0 0,-2.916301 3.03295,0 0,-0.933217 -3.03295,0 0,-2.706036 3.26626,0 0,-0.933217 -4.33946,0 0,8.421988 4.40945,0 z m -13.1986,-7.488771 2.33304,7.488771 1.01488,0 2.35637,-7.488771 0.0233,7.488771 1.0732,0 0,-8.421988 -1.77311,0 -2.1464,7.068824 -2.1464,-7.068824 -1.73812,0 0,8.421988 1.00321,0 0,-7.488771 z m -7.92621,4.981043 c -0.0233,0.804608 -0.0233,2.706036 2.46135,2.682706 1.38846,0 2.61301,-0.571595 2.61301,-2.344707 0,-2.67104 -3.77953,-2.402741 -3.77953,-4.257508 0,-0.909886 0.65326,-1.236804 1.29484,-1.236804 1.01487,0 1.3065,0.606882 1.29484,1.528142 l 1.12015,0 c 0.0697,-1.714785 -0.79352,-2.461358 -2.33333,-2.461358 -1.41149,0 -2.47303,0.793234 -2.47303,2.28638 0,2.53135 3.77953,2.321668 3.77953,4.187809 0,1.0035 -0.65325,1.364829 -1.50481,1.364829 -0.68825,0 -1.41149,-0.361329 -1.41149,-1.50452 l 0,-0.244969 -1.06153,0 z m -6.49782,-5.91426 0,0.933217 2.21581,0 0,7.488771 1.07349,0 0,-7.488771 2.21639,0 0,-0.933217 -5.50569,0 z m -12.26596,0 0,0.933217 2.2161,0 0,7.488771 1.07349,0 0,-7.488771 2.2161,0 0,-0.933217 -5.50569,0 z m -1.63313,0 -1.0732,0 0,8.422279 1.0732,0 0,-8.422279 z m -7.94138,5.91426 c -0.0233,0.804608 -0.0233,2.706036 2.46136,2.682706 1.38816,0 2.613,-0.571595 2.613,-2.344707 0,-2.67104 -3.77952,-2.402741 -3.77952,-4.257508 0,-0.909886 0.65325,-1.236804 1.29484,-1.236804 1.01487,0 1.3065,0.606882 1.29483,1.528142 l 1.11986,0 c 0.07,-1.714785 -0.79323,-2.461358 -2.33304,-2.461358 -1.41149,0 -2.47302,0.793234 -2.47302,2.28638 0,2.53135 3.77923,2.321668 3.77923,4.187809 0,1.0035 -0.65296,1.364829 -1.50452,1.364829 -0.68824,0 -1.41149,-0.361329 -1.41149,-1.50452 l 0,-0.244969 -1.06153,0 z m -8.31467,2.507728 0,-0.933217 -3.33596,0 0,-2.916301 3.03296,0 0,-0.933217 -3.03296,0 0,-2.706036 3.26626,0 0,-0.933217 -4.33975,0 0,8.421988 4.40945,0 z m -5.81073,-8.421988 -1.096528,0 -1.97142,7.407115 -1.94809,-7.407115 -1.166229,0 2.437737,8.421988 1.283172,0 2.461358,-8.421988 z m -7.7177,0 -1.073199,0 0,8.422279 1.073199,0 0,-8.422279 z m -4.305336,0 0,7.208806 -3.301253,-7.208806 -1.516477,0 0,8.421988 0.956547,0 0,-7.30242 3.347914,7.30242 1.469816,0 0,-8.421988 -0.956547,0 z m -12.185766,5.342373 c 0,2.333333 0.863225,3.254593 2.648002,3.254593 1.784776,0 2.648002,-0.92126 2.648002,-3.254593 l 0,-5.342373 -1.072908,0 0,5.389326 c 0,1.842811 -0.560221,2.309419 -1.575094,2.309419 -1.014873,0 -1.574803,-0.466608 -1.574803,-2.309419 l 0,-5.389326 -1.073199,0 0,5.342373 z m 52.029152,7.988042 2.33304,7.489063 1.01488,0 2.35666,-7.489063 0.023,7.489063 1.0732,0 0,-8.422279 -1.77312,0 -2.14639,7.069115 -2.14611,-7.069115 -1.73841,0 0,8.422279 1.00321,0 0,-7.489063"
         style="fill:#231f20;fill-opacity:1;fill-rule:evenodd;stroke:none"
         id="path180" />
      <path
         id="path184"
         style="fill:#b11b18;fill-opacity:1;fill-rule:nonzero;stroke:none"
         d="m 34.933214,20.532992 c 0,-9.131232 7.402157,-16.5333887 16.533389,-16.5333887 9.131232,0 16.533388,7.4021567 16.533388,16.5333887 0,9.131232 -7.402156,16.533389 -16.533388,16.533389 -9.131232,0 -16.533389,-7.402157 -16.533389,-16.533389" />
      <path
         id="path188"
         style="fill:#1c4189;fill-opacity:1;fill-rule:evenodd;stroke:none"
         d="m 122.42022,30.826662 0,-15.59434 0.056,0 3.69554,15.59434 4.0315,0 3.89122,-15.59434 0.0563,0 0,15.59434 4.11519,0 0,-20.21347 -6.57917,0 -3.35929,13.74628 -0.056,0 -3.1639,-13.74628 -6.80315,0 0,20.21347 4.11578,0 z m -24.053947,0 0,-15.59434 0.05599,0 3.695824,15.59434 4.03121,0 3.89122,-15.59434 0.0566,0 0,15.59434 4.11519,0 0,-20.21347 -6.57918,0 -3.35958,13.74628 -0.056,0 -3.1636,-13.74628 -6.803152,0 0,20.21347 4.115485,0 z m -12.579176,-20.21347 0,14.054241 c 0,2.23972 -0.839894,3.471857 -2.687371,3.471857 -1.540099,0 -2.603966,-0.980169 -2.603966,-3.471857 l 0,-14.054241 -4.227471,0 0,14.333914 c 0,3.807815 2.240011,6.215222 6.88743,6.215222 5.151355,0 6.858849,-3.1916 6.858849,-6.215222 l 0,-14.333914 -4.227471,0" />
      <path
         d="m 6.0000299,66.000001 12.4001141,0 0,-12.399823 -12.4001141,0 0,12.399823 z"
         style="fill:#1c4189;fill-opacity:1;fill-rule:nonzero;stroke:none"
         id="path190" />
      <path
         id="path194"
         style="fill:#1c4189;fill-opacity:1;fill-rule:nonzero;stroke:none"
         d="m 51.466602,53.59977 0,-12.400114 12.399823,0 0,24.799937 -24.799646,0 0,-12.399823 12.399823,0 z" />
      <path
         id="path198"
         style="fill:#1c4189;fill-opacity:1;fill-rule:nonzero;stroke:none"
         d="m 18.400114,20.532992 0,12.399823 -12.4001144,0 0,-24.7999374 24.7999374,0 0,12.4001144 -12.399823,0 z" />
      <path
         d="m 134.79907,42.974341 -1.09652,0 0,1.21289 1.09652,0 0,-1.21289 z m -4.96937,10.626712 1.08486,0 0.62992,-2.006416 3.25459,0 0.6066,2.006416 1.20151,0 -2.74132,-8.421988 -1.36483,0 -2.67133,8.421988 z m 4.67774,-2.939632 -2.69466,0 1.31817,-4.490813 1.37649,4.490813 z m -1.76144,-7.68708 -1.09653,0 0,1.21289 1.09653,0 0,-1.21289 z m -42.379406,20.08457 -2.694662,0 1.318168,-4.491105 1.376494,4.491105 z m -4.677747,2.939632 1.084864,0 0.630213,-2.006708 3.254301,0 0.60659,2.006708 1.201517,0 -2.741324,-8.422279 -1.364829,0 -2.671332,8.422279 z m 23.520843,-19.886261 1.62147,0 c 0.82823,0 1.13152,0.676582 1.13152,1.282881 0,0.734908 -0.37328,1.399825 -1.14319,1.399825 l -1.6098,0 0,-2.682706 z m 1.25985,3.616214 c 0.36162,0 1.18985,0.04637 1.2715,1.072907 0.0933,1.120152 0.0233,2.216389 0.32634,2.79965 l 1.11986,0 c -0.16302,-0.524935 -0.27968,-1.842811 -0.29134,-2.204433 -0.0583,-1.691746 -0.40857,-2.018372 -1.37649,-2.17002 0.99154,-0.198017 1.5398,-0.956547 1.5398,-1.948089 0,-1.049869 -0.52493,-2.099446 -2.01808,-2.099446 l -2.90463,0 0,8.421988 1.07319,0 0,-3.872557 1.25985,0 z m 56.37852,-3.616214 1.41149,0 c 1.11986,0 1.64451,0.629921 1.64451,2.332749 l 0,1.703121 c 0,1.959754 -0.54798,2.519684 -2.04112,2.519684 l -1.01488,0 0,-6.555554 z m -1.0732,7.488771 1.93614,0 c 1.4701,0 2.32137,-0.361622 2.77661,-1.084573 0.34995,-0.560221 0.51327,-1.598133 0.51327,-3.394867 0,-0.268008 -0.035,-1.947797 -0.37329,-2.659667 -0.41995,-0.897929 -1.18985,-1.282881 -2.26305,-1.282881 l -2.58968,0 0,8.421988 z m -40.8463,3.975211 -1.0732,0 0,8.422279 1.0732,0 0,-8.422279 z m -2.95771,8.422279 0,-0.933217 -3.33625,0 0,-2.916302 3.03266,0 0,-0.933508 -3.03266,0 0,-2.706036 3.26626,0 0,-0.933216 -4.33975,0 0,8.422279 4.40974,0 z m -10.71537,0 0,-3.849519 2.9513,0 0,3.849519 1.0732,0 0,-8.422279 -1.0732,0 0,3.639252 -2.9513,0 0,-3.639252 -1.0732,0 0,8.422279 1.0732,0 z m -4.36949,-8.422279 0,7.208805 -3.30126,-7.208805 -1.51648,0 0,8.422279 0.95684,0 0,-7.30242 3.34763,7.30242 1.46981,0 0,-8.422279 -0.95654,0 z m -8.102074,0 0,7.208805 -3.301254,-7.208805 -1.516476,0 0,8.422279 0.956547,0 0,-7.30242 3.347622,7.30242 1.469816,0 0,-8.422279 -0.956255,0 z m -21.349078,0.933216 2.33275,7.489063 1.014873,0 2.356663,-7.489063 0.02303,7.489063 1.073491,0 0,-8.422279 -1.773403,0 -2.146398,7.069115 -2.146106,-7.069115 -1.738408,0 0,8.422279 1.0035,0 0,-7.489063 z m 113.608612,-13.330415 0,7.208806 -3.30096,-7.208806 -1.51648,0 0,8.421988 0.95655,0 0,-7.30242 3.34791,7.30242 1.46953,0 0,-8.421988 -0.95655,0 z m -7.16798,0 -1.0732,0 0,8.422279 1.0732,0 0,-8.422279 z m -2.97317,0 -5.0277,0 0,0.933217 3.94284,0 -4.08253,6.275589 0,1.213182 5.26072,0 0,-0.933217 -4.26947,0 4.17614,-6.415863 0,-1.072908 z m -7.02799,0 -1.0732,0 0,8.422279 1.0732,0 0,-8.422279 z m -9.81219,8.421988 0,-0.933217 -3.33625,0 0,-2.916301 3.03295,0 0,-0.933217 -3.03295,0 0,-2.706036 3.26626,0 0,-0.933217 -4.33946,0 0,8.421988 4.40945,0 z m -13.1986,-7.488771 2.33304,7.488771 1.01488,0 2.35637,-7.488771 0.0233,7.488771 1.0732,0 0,-8.421988 -1.77311,0 -2.1464,7.068824 -2.1464,-7.068824 -1.73812,0 0,8.421988 1.00321,0 0,-7.488771 z m -7.92621,4.981043 c -0.0233,0.804608 -0.0233,2.706036 2.46135,2.682706 1.38846,0 2.61301,-0.571595 2.61301,-2.344707 0,-2.67104 -3.77953,-2.402741 -3.77953,-4.257508 0,-0.909886 0.65326,-1.236804 1.29484,-1.236804 1.01487,0 1.3065,0.606882 1.29484,1.528142 l 1.12015,0 c 0.0697,-1.714785 -0.79352,-2.461358 -2.33333,-2.461358 -1.41149,0 -2.47303,0.793234 -2.47303,2.28638 0,2.53135 3.77953,2.321668 3.77953,4.187809 0,1.0035 -0.65325,1.364829 -1.50481,1.364829 -0.68825,0 -1.41149,-0.361329 -1.41149,-1.50452 l 0,-0.244969 -1.06153,0 z m -6.49782,-5.91426 0,0.933217 2.21581,0 0,7.488771 1.07349,0 0,-7.488771 2.21639,0 0,-0.933217 -5.50569,0 z m -12.26596,0 0,0.933217 2.2161,0 0,7.488771 1.07349,0 0,-7.488771 2.2161,0 0,-0.933217 -5.50569,0 z m -1.63313,0 -1.0732,0 0,8.422279 1.0732,0 0,-8.422279 z m -7.94138,5.91426 c -0.0233,0.804608 -0.0233,2.706036 2.46136,2.682706 1.38816,0 2.613,-0.571595 2.613,-2.344707 0,-2.67104 -3.77952,-2.402741 -3.77952,-4.257508 0,-0.909886 0.65325,-1.236804 1.29484,-1.236804 1.01487,0 1.3065,0.606882 1.29483,1.528142 l 1.11986,0 c 0.07,-1.714785 -0.79323,-2.461358 -2.33304,-2.461358 -1.41149,0 -2.47302,0.793234 -2.47302,2.28638 0,2.53135 3.77923,2.321668 3.77923,4.187809 0,1.0035 -0.65296,1.364829 -1.50452,1.364829 -0.68824,0 -1.41149,-0.361329 -1.41149,-1.50452 l 0,-0.244969 -1.06153,0 z m -8.31467,2.507728 0,-0.933217 -3.33596,0 0,-2.916301 3.03296,0 0,-0.933217 -3.03296,0 0,-2.706036 3.26626,0 0,-0.933217 -4.33975,0 0,8.421988 4.40945,0 z m -5.81073,-8.421988 -1.096528,0 -1.97142,7.407115 -1.94809,-7.407115 -1.166229,0 2.437737,8.421988 1.283172,0 2.461358,-8.421988 z m -7.7177,0 -1.073199,0 0,8.422279 1.073199,0 0,-8.422279 z m -4.305336,0 0,7.208806 -3.301253,-7.208806 -1.516477,0 0,8.421988 0.956547,0 0,-7.30242 3.347914,7.30242 1.469816,0 0,-8.421988 -0.956547,0 z m -12.185766,5.342373 c 0,2.333333 0.863225,3.254593 2.648002,3.254593 1.784776,0 2.648002,-0.92126 2.648002,-3.254593 l 0,-5.342373 -1.072908,0 0,5.389326 c 0,1.842811 -0.560221,2.309419 -1.575094,2.309419 -1.014873,0 -1.574803,-0.466608 -1.574803,-2.309419 l 0,-5.389326 -1.073199,0 0,5.342373 z m 52.029152,7.988042 2.33304,7.489063 1.01488,0 2.35666,-7.489063 0.023,7.489063 1.0732,0 0,-8.422279 -1.77312,0 -2.14639,7.069115 -2.14611,-7.069115 -1.73841,0 0,8.422279 1.00321,0 0,-7.489063"
         style="fill:#231f20;fill-opacity:1;fill-rule:evenodd;stroke:none"
         id="path200" />
      <path
         id="path204"
         style="fill:#b11b18;fill-opacity:1;fill-rule:nonzero;stroke:none"
         d="m 34.933214,20.532992 c 0,-9.131232 7.402157,-16.5333887 16.533389,-16.5333887 9.131232,0 16.533388,7.4021567 16.533388,16.5333887 0,9.131232 -7.402156,16.533389 -16.533388,16.533389 -9.131232,0 -16.533389,-7.402157 -16.533389,-16.533389" />
    </g>
  </g>
</svg>
