<svg width="266" height="40" viewBox="0 0 266 40" xmlns="http://www.w3.org/2000/svg"><title>EBC234ED-A981-4AF1-92FB-BB4738938F2E</title><g fill="#3070B3" fill-rule="evenodd"><path d="M59.48 10.223v22.333c-1.411-3.87-3.58-8.534-6.62-10.624 3.946-1.474 5.318-5.637 5.292-10.267C58.14 5.685 52.613.903 46.358.9H33.684L21.893 13.994V0L0 24.627l.065 15.112 14.08-15.134-.022 15.454 14.768-16.487v15.705h10.741V25.404h3.196c.147-.087.97.636 1.675 1.92 2.23 3.802 4.754 11.568 4.764 11.579l.108.374h20.277V.07L59.478 10.223h.003zm-13.873 5.705h-6.301v-5.916h6.301c1.338 0 2.553 1.28 2.553 2.94 0 .814-.303 1.614-.766 2.159-.482.503-1.12.82-1.787.817zM89 24.851h1.14v-3.099l1.427-1.376 3.095 4.475h1.44l-3.755-5.28L95.957 16h-1.475l-4.342 4.413V16H89v8.851zm8.065 0h1.02V16h-1.02v8.851zm2.834 0h1.02v-6.409h-1.02v6.41zM100.92 16h-1.02v1.29h1.02V16zm1.755 8.851h1.02v-3.62c0-1.152.6-2.008 1.835-2.008.78 0 1.26.508 1.26 1.29v4.338h1.019v-4.215c0-1.376-.504-2.343-2.135-2.343-.888 0-1.584.372-2.016 1.166h-.024v-1.017h-.96v6.41zm6.9 0h1.02v-6.409h-1.02v6.41zm1.02-8.851h-1.02v1.29h1.02V16zm1.815 8.851h1.02v-2.43l.96-.917 2.123 3.347h1.296l-2.64-4.078 2.46-2.33h-1.368l-2.831 2.8V16h-1.02v8.851zm11.472-6.409h-1.02v3.62c0 1.153-.6 2.008-1.835 2.008-.78 0-1.26-.508-1.26-1.289v-4.339h-1.02v4.215c0 1.376.505 2.343 2.136 2.343.888 0 1.583-.372 2.015-1.165h.024v1.016h.96v-6.409zm1.707 6.41h1.02V20.86c0-.484.443-1.637 1.655-1.637.912 0 1.164.595 1.164 1.426v4.202h1.02V20.86c0-.992.635-1.637 1.619-1.637.995 0 1.2.632 1.2 1.426v4.202h1.019v-4.698c0-1.327-.828-1.86-2.063-1.86-.792 0-1.524.41-1.944 1.091-.252-.78-.947-1.09-1.703-1.09-.852 0-1.548.371-2.003 1.09h-.024v-.942h-.96v6.41zm13.874 0h1.02V22c0-1.624.6-2.59 2.243-2.59v-1.117c-1.104-.037-1.787.471-2.28 1.5h-.023v-1.35h-.96v6.408zm8.269-2.034h1.007c-.275 1.413-1.26 2.182-2.65 2.182-1.98 0-2.916-1.413-2.976-3.372 0-1.921 1.224-3.335 2.915-3.335 2.196 0 2.867 2.12 2.807 3.67h-4.642c-.036 1.116.576 2.107 1.931 2.107.84 0 1.428-.421 1.608-1.252zm-3.54-1.785h3.564c-.048-1.004-.78-1.81-1.788-1.81-1.067 0-1.703.83-1.775 1.81zm11.137-.533c-.144-1.525-1.272-2.207-2.675-2.207-1.968 0-2.927 1.513-2.927 3.434 0 1.91 1.007 3.273 2.903 3.273 1.56 0 2.507-.93 2.735-2.492h-1.044c-.132.967-.72 1.562-1.703 1.562-1.296 0-1.812-1.165-1.812-2.343 0-1.301.456-2.504 1.932-2.504.84 0 1.38.471 1.535 1.277h1.056zm1.347 4.351h1.02v-3.62c0-1.152.6-2.008 1.835-2.008.78 0 1.26.508 1.26 1.29v4.338h1.019v-4.215c0-1.376-.504-2.343-2.135-2.343-.744 0-1.62.323-1.956 1.091h-.024V16h-1.02v8.851zm8.256-8.33h-1.02v1.921h-1.055v.93h1.056v4.078c0 1.178.42 1.401 1.475 1.401h.78v-.93h-.468c-.636 0-.768-.086-.768-.57v-3.98h1.236v-.929h-1.236v-1.921zm2.14 6.31c.059 1.586 1.235 2.169 2.626 2.169 1.26 0 2.64-.496 2.64-2.02 0-1.24-1.008-1.587-2.028-1.823-.948-.236-2.027-.36-2.027-1.116 0-.644.707-.818 1.32-.818.671 0 1.367.26 1.439 1.079h1.02c-.085-1.562-1.176-2.009-2.544-2.009-1.08 0-2.315.533-2.315 1.823 0 1.227 1.02 1.574 2.027 1.81 1.02.235 2.028.372 2.028 1.19 0 .805-.864.954-1.5.954-.84 0-1.631-.297-1.667-1.24h-1.02zM182.683 16v8.851h-1.02v-.868h-.024c-.336.707-1.128 1.017-1.98 1.017-1.907 0-2.854-1.562-2.854-3.372 0-1.81.935-3.335 2.83-3.335.637 0 1.548.248 2.004 1.005h.024V16h1.02zm-4.799 5.702c0 1.203.6 2.368 1.92 2.368 1.367 0 1.895-1.215 1.895-2.417 0-1.265-.552-2.43-1.955-2.43-1.392 0-1.86 1.227-1.86 2.48zm10.824 1.116h1.008c-.276 1.413-1.26 2.182-2.651 2.182-1.98 0-2.915-1.413-2.975-3.372 0-1.921 1.223-3.335 2.915-3.335 2.195 0 2.867 2.12 2.807 3.67h-4.643c-.036 1.116.576 2.107 1.932 2.107.84 0 1.427-.421 1.607-1.252zm-3.539-1.785h3.563c-.048-1.004-.78-1.81-1.787-1.81-1.068 0-1.704.83-1.776 1.81zm5.834 3.818h1.02V22c0-1.624.6-2.59 2.243-2.59v-1.117c-1.104-.037-1.788.471-2.28 1.5h-.023v-1.35h-.96v6.408zm7.924 0h1.14V16h-1.14v8.851zm2.667-2.02c.06 1.586 1.235 2.169 2.627 2.169 1.26 0 2.639-.496 2.639-2.02 0-1.24-1.008-1.587-2.027-1.823-.948-.236-2.028-.36-2.028-1.116 0-.644.708-.818 1.32-.818.672 0 1.367.26 1.44 1.079h1.019c-.084-1.562-1.176-2.009-2.543-2.009-1.08 0-2.315.533-2.315 1.823 0 1.227 1.02 1.574 2.027 1.81 1.02.235 2.027.372 2.027 1.19 0 .805-.864.954-1.5.954-.839 0-1.63-.297-1.667-1.24h-1.02zm10.404-.211V21.54c-.396.298-1.164.31-1.848.434-.672.124-1.247.372-1.247 1.153 0 .694.575.942 1.2.942 1.343 0 1.895-.868 1.895-1.45zm1.655 1.388v.818c-.18.112-.408.174-.732.174-.528 0-.863-.298-.863-.992-.564.682-1.32.992-2.184.992-1.127 0-2.051-.52-2.051-1.798 0-1.45 1.044-1.76 2.1-1.97 1.127-.224 2.087-.15 2.087-.943 0-.917-.732-1.066-1.38-1.066-.864 0-1.5.273-1.547 1.215h-1.02c.06-1.587 1.247-2.145 2.627-2.145 1.116 0 2.327.26 2.327 1.76v3.298c0 .496 0 .72.324.72a.85.85 0 0 0 .312-.063zm1.083.843h1.02V22c0-1.624.6-2.59 2.243-2.59v-1.117c-1.104-.037-1.787.471-2.28 1.5h-.023v-1.35h-.96v6.408zM90.856 38.79v-7.805H88V30h6.852v.985h-2.856v7.806h-1.14zm7.9-2.018h1.007c-.276 1.403-1.26 2.166-2.652 2.166-1.98 0-2.916-1.403-2.976-3.348 0-1.909 1.224-3.312 2.916-3.312 2.196 0 2.868 2.105 2.808 3.644h-4.644c-.036 1.108.576 2.093 1.932 2.093.84 0 1.428-.419 1.608-1.243zm-3.54-1.773h3.563C98.731 34 98 33.2 96.991 33.2c-1.068 0-1.704.825-1.776 1.798zm11.139-.53c-.144-1.514-1.272-2.191-2.676-2.191-1.968 0-2.928 1.502-2.928 3.41 0 1.896 1.008 3.25 2.904 3.25 1.56 0 2.508-.923 2.736-2.474h-1.044c-.132.96-.72 1.551-1.704 1.551-1.296 0-1.812-1.157-1.812-2.327 0-1.293.456-2.487 1.932-2.487.84 0 1.38.468 1.536 1.268h1.056zm1.347 4.322h1.02v-3.595c0-1.145.6-1.995 1.836-1.995.78 0 1.26.505 1.26 1.28v4.31h1.02v-4.186c0-1.367-.504-2.327-2.136-2.327-.744 0-1.62.32-1.956 1.083h-.024V30h-1.02v8.79zm6.844 0h1.02v-3.595c0-1.145.6-1.995 1.836-1.995.78 0 1.26.505 1.26 1.28v4.31h1.02v-4.186c0-1.367-.504-2.327-2.136-2.327-.888 0-1.584.37-2.016 1.157h-.024v-1.01h-.96v6.366zm6.903 0h1.02v-6.366h-1.02v6.366zM122.47 30h-1.02v1.28h1.02V30zm1.36 6.784c.06 1.576 1.236 2.154 2.628 2.154 1.26 0 2.64-.492 2.64-2.006 0-1.232-1.008-1.576-2.028-1.81-.948-.234-2.028-.357-2.028-1.108 0-.64.708-.813 1.32-.813.672 0 1.368.259 1.44 1.071h1.02c-.084-1.551-1.176-1.994-2.544-1.994-1.08 0-2.316.53-2.316 1.81 0 1.218 1.02 1.563 2.028 1.797 1.02.234 2.028.37 2.028 1.182 0 .8-.864.948-1.5.948-.84 0-1.632-.295-1.668-1.231h-1.02zm11.835-2.315c-.144-1.514-1.272-2.191-2.676-2.191-1.968 0-2.928 1.502-2.928 3.41 0 1.896 1.008 3.25 2.904 3.25 1.56 0 2.508-.923 2.736-2.474h-1.044c-.132.96-.72 1.551-1.704 1.551-1.296 0-1.812-1.157-1.812-2.327 0-1.293.456-2.487 1.932-2.487.84 0 1.38.468 1.536 1.268h1.056zm1.348 4.322h1.02v-3.595c0-1.145.6-1.995 1.836-1.995.78 0 1.26.505 1.26 1.28v4.31h1.02v-4.186c0-1.367-.504-2.327-2.136-2.327-.744 0-1.62.32-1.956 1.083h-.024V30h-1.02v8.79zm11.127-2.02h1.008c-.276 1.404-1.26 2.167-2.652 2.167-1.98 0-2.916-1.403-2.976-3.348 0-1.909 1.224-3.312 2.916-3.312 2.196 0 2.868 2.105 2.808 3.644H144.6c-.036 1.108.576 2.093 1.932 2.093.84 0 1.428-.419 1.608-1.243zM144.6 35h3.564c-.048-.998-.78-1.798-1.788-1.798-1.068 0-1.704.825-1.776 1.798zM160.986 30h-1.14v5.614c0 1.552-.792 2.401-2.232 2.401-1.512 0-2.376-.85-2.376-2.4V30h-1.14v5.614c0 2.34 1.308 3.386 3.516 3.386 2.136 0 3.372-1.17 3.372-3.386V30zm1.827 8.79h1.02v-3.594c0-1.145.6-1.995 1.836-1.995.78 0 1.26.505 1.26 1.28v4.31h1.02v-4.186c0-1.367-.504-2.327-2.136-2.327-.888 0-1.584.37-2.016 1.157h-.024v-1.01h-.96v6.366zm6.904 0h1.02v-6.365h-1.02v6.366zm1.02-8.79h-1.02v1.28h1.02V30zm6.82 2.425h-1.069l-1.692 5.307h-.024l-1.74-5.307h-1.14l2.304 6.366h1.092l2.268-6.366zm5.39 4.347h1.009c-.276 1.403-1.26 2.166-2.652 2.166-1.98 0-2.916-1.403-2.976-3.348 0-1.909 1.224-3.312 2.916-3.312 2.196 0 2.868 2.105 2.808 3.644h-4.644c-.036 1.108.576 2.093 1.932 2.093.84 0 1.428-.419 1.608-1.243zm-3.54-1.773h3.565c-.048-.998-.78-1.798-1.788-1.798-1.068 0-1.704.825-1.776 1.798zm5.836 3.792h1.02v-2.832c0-1.613.6-2.573 2.244-2.573v-1.108c-1.104-.037-1.788.468-2.28 1.49h-.024v-1.343h-.96v6.366zm3.808-2.007c.06 1.576 1.236 2.154 2.628 2.154 1.26 0 2.64-.492 2.64-2.006 0-1.232-1.008-1.576-2.028-1.81-.948-.234-2.028-.357-2.028-1.108 0-.64.708-.813 1.32-.813.672 0 1.368.259 1.44 1.071h1.02c-.084-1.551-1.176-1.994-2.544-1.994-1.08 0-2.316.53-2.316 1.81 0 1.218 1.02 1.563 2.028 1.797 1.02.234 2.028.37 2.028 1.182 0 .8-.864.948-1.5.948-.84 0-1.632-.295-1.668-1.231h-1.02zm6.627 2.007h1.02v-6.366h-1.02v6.366zm1.02-8.791h-1.02v1.28h1.02V30zm3.172.517h-1.02v1.908h-1.057v.924h1.056v4.05c0 1.17.42 1.392 1.477 1.392h.78v-.924h-.468c-.636 0-.768-.086-.768-.566v-3.952h1.236v-.924h-1.236v-1.908zm6.375 6.058v-1.072c-.396.296-1.164.308-1.848.431-.672.123-1.248.37-1.248 1.145 0 .69.576.936 1.2.936 1.344 0 1.896-.862 1.896-1.44zm1.656 1.378v.813c-.18.11-.408.172-.732.172-.528 0-.864-.295-.864-.985-.564.678-1.32.985-2.184.985-1.128 0-2.052-.517-2.052-1.785 0-1.44 1.044-1.748 2.1-1.957 1.128-.222 2.088-.148 2.088-.936 0-.911-.732-1.059-1.38-1.059-.864 0-1.5.271-1.548 1.207h-1.02c.06-1.576 1.248-2.13 2.628-2.13 1.116 0 2.328.258 2.328 1.748v3.275c0 .492 0 .714.324.714.084 0 .18-.012.312-.062zm-2.448-6.45h1.08v-1.281h-1.08v1.28zm-2.256 0h1.08v-1.281h-1.08v1.28zm7.24-.986h-1.02v1.908h-1.057v.924h1.056v4.05c0 1.17.42 1.392 1.476 1.392h.78v-.924h-.468c-.636 0-.768-.086-.768-.566v-3.952h1.236v-.924h-1.236v-1.908zm6.234 8.274h1.08v-7.314h.024l2.676 7.314h.972l2.676-7.314h.024v7.314h1.08V30h-1.56l-2.712 7.387-2.7-7.387h-1.56v8.79zm15.568-6.366h-1.02v3.596c0 1.145-.6 1.994-1.836 1.994-.78 0-1.26-.505-1.26-1.28v-4.31h-1.02v4.186c0 1.367.504 2.327 2.136 2.327.888 0 1.584-.369 2.016-1.157h.024v1.01h.96v-6.366zm-1.98-.923h1.08v-1.28h-1.08v1.28zm-2.256 0h1.08v-1.28h-1.08v1.28zm5.943 7.289h1.02v-3.595c0-1.145.6-1.995 1.836-1.995.78 0 1.26.505 1.26 1.28v4.31h1.02v-4.186c0-1.367-.504-2.327-2.136-2.327-.888 0-1.584.37-2.016 1.157h-.024v-1.01h-.96v6.366zm12.112-4.322c-.144-1.514-1.272-2.191-2.676-2.191-1.968 0-2.928 1.502-2.928 3.41 0 1.896 1.008 3.25 2.904 3.25 1.56 0 2.508-.923 2.736-2.474h-1.044c-.132.96-.72 1.551-1.704 1.551-1.296 0-1.812-1.157-1.812-2.327 0-1.293.456-2.487 1.932-2.487.84 0 1.38.468 1.536 1.268h1.056zm1.347 4.322h1.02v-3.595c0-1.145.6-1.995 1.836-1.995.78 0 1.26.505 1.26 1.28v4.31h1.02v-4.186c0-1.367-.504-2.327-2.136-2.327-.744 0-1.62.32-1.956 1.083h-.024V30h-1.02v8.79zm11.128-2.02h1.008c-.276 1.404-1.26 2.167-2.652 2.167-1.98 0-2.916-1.403-2.976-3.348 0-1.909 1.224-3.312 2.916-3.312 2.196 0 2.868 2.105 2.808 3.644h-4.644c-.036 1.108.576 2.093 1.932 2.093.84 0 1.428-.419 1.608-1.243zM254.993 35h3.564c-.048-.998-.78-1.798-1.788-1.798-1.068 0-1.704.825-1.776 1.798zm5.871 3.792h1.02v-3.595c0-1.145.6-1.995 1.836-1.995.78 0 1.26.505 1.26 1.28v4.31H266v-4.186c0-1.367-.504-2.327-2.136-2.327-.888 0-1.584.37-2.016 1.157h-.024v-1.01h-.96v6.366z"/></g></svg>