<?xml version="1.0" encoding="utf-8"?>
<!-- Generator: Adobe Illustrator 26.3.1, SVG Export Plug-In . SVG Version: 6.00 Build 0)  -->
<svg version="1.1" id="Ebene_1" xmlns="http://www.w3.org/2000/svg" xmlns:xlink="http://www.w3.org/1999/xlink" x="0px" y="0px"
	 viewBox="0 0 260 80" style="enable-background:new 0 0 260 80;" xml:space="preserve">
<style type="text/css">
	.st0{fill:#134395;}
	.st1{fill:#00964E;}
</style>
<g>
	<g>
		<path d="M16.2,37.3c-2.8,0-5.8-0.7-7.3-3.3c-1-1.7-1-3.3-1-5.2V17.7h4.2V29c0,3,0.8,5.2,4.2,5.2s4.2-2.5,4.2-5.4V17.6h4.1v11.2
			C24.7,34.5,21.8,37.3,16.2,37.3z"/>
		<path d="M37.5,36.9v-7.1c0-1.8-0.1-3.9-2.5-3.9c-2.5,0-2.8,2.7-2.8,4.2v6.8h-3.9V26.1c0-0.9,0-1.7-0.1-2.6H32l0.1,2
			c1.2-1.5,2.5-2.3,4.4-2.3c3.3,0,4.9,1.7,4.9,4.9v8.7h-3.9V36.9z"/>
		<path d="M44.7,20.8v-3.1h4.1v3.1H44.7z M44.7,36.9V23.5h3.9v13.4H44.7z"/>
		<path d="M51.9,36.9V17.7h3.9v19.2H51.9z M61.3,36.9l-5.5-7.5l5.2-5.9h4.7l-5.5,5.7l6,7.7L61.3,36.9L61.3,36.9z"/>
		<path d="M67.9,36.9V17.7h3.9v19.2H67.9z"/>
		<path d="M75.1,20.8v-3.1h4.1v3.1H75.1z M75.1,36.9V23.5H79v13.4H75.1z"/>
		<path d="M91.6,36.9v-7.1c0-1.8-0.1-3.9-2.5-3.9c-2.5,0-2.8,2.7-2.8,4.2v6.8h-3.9V26.1c0-0.9,0-1.7-0.1-2.6h3.9l0.1,2
			c1.2-1.5,2.5-2.3,4.4-2.3c3.3,0,4.9,1.7,4.9,4.9v8.7h-4V36.9z"/>
		<path d="M98.7,20.8v-3.1h4.1v3.1H98.7z M98.8,36.9V23.5h3.9v13.4H98.8z"/>
		<path d="M106,36.9V17.7h3.9v19.2H106z M115.3,36.9l-5.5-7.5l5.2-5.9h4.7l-5.5,5.7l6,7.7L115.3,36.9L115.3,36.9z"/>
		<path d="M131.4,36.9l-0.1-2c-1.2,1.5-2.4,2.3-4.4,2.3c-3.3,0-4.9-1.7-4.9-4.9v-8.7h3.9v7.1c0,1.8,0.1,3.9,2.5,3.9
			c2.4,0,2.9-2.2,2.9-4.1v-7h3.9v8.4c0,1.7,0,3.3,0.1,4.9L131.4,36.9L131.4,36.9z"/>
		<path d="M156.7,36.9v-7.4c0-1.8-0.2-3.5-2.5-3.5s-2.7,1.8-2.7,3.7V37h-3.9v-7.5c0-1.7-0.3-3.6-2.5-3.6s-2.8,1.7-2.8,3.6v7.4h-3.9
			V28c0-1.5-0.1-3-0.1-4.5h3.8l0.1,2.1c1-1.7,2.6-2.3,4.5-2.3c2,0,3.5,0.7,4.2,2.6c1-1.8,2.8-2.6,4.8-2.6c3.4,0,4.8,2.2,4.8,5.3v8.3
			H156.7L156.7,36.9L156.7,36.9z"/>
		<path d="M64.8,62.7h-3.1l-5.3-16.8l-5.2,16.8h-3.3l-5.1-19.2h2.6l4.2,17l5.2-17h3l5.4,17l4.2-17H70L64.8,62.7z"/>
		<path d="M81.3,62.7l-0.1-2.2c-1.1,1.5-2.4,2.3-4.3,2.3c-3.5,0-4.8-1.9-4.8-5.2v-8.4h2.3v7.4c0,2.3,0.2,4.4,3.1,4.4
			c2.8,0,3.7-2.3,3.7-4.7v-7.1h2.3v6.5c0,2.3,0,4.6,0.1,6.9L81.3,62.7L81.3,62.7z M74.1,45.8v-2.3h2.5v2.3H74.1z M79.1,45.8v-2.3
			h2.5v2.3H79.1z"/>
		<path d="M93.4,51.4c-2.8,0-3.7,1.5-3.7,4.1v7.2h-2.3v-9.5c0-1.3-0.1-2.6-0.1-3.9h2.3l0.1,2.2c1-1.5,2.3-2.2,4.1-2.2
			c0.2,0,0.5,0,0.7,0.1v2.2C94.2,51.4,93.8,51.4,93.4,51.4z"/>
		<path d="M95.5,62.7v-1.9l7.7-9.8h-7.5v-1.7h9.9v2L98,61h7.8v1.7H95.5z"/>
		<path d="M115,63c-1.9,0-3.1-0.8-4.2-2.3l-0.1,2h-2.3c0.1-1.3,0.1-2.6,0.1-3.9V43.5h2.3v8.1c1-1.7,2.5-2.5,4.5-2.5
			c3.9,0,5.7,3.3,5.7,6.8C121,59.5,119,63,115,63z M114.8,50.7c-3,0-4.1,2.8-4.1,5.4c0,2.4,0.9,5.2,3.8,5.2c3,0,4-2.7,4-5.3
			C118.5,53.6,117.6,50.7,114.8,50.7z"/>
		<path d="M133.1,62.7l-0.1-2.1c-1.1,1.5-2.4,2.3-4.3,2.3c-3.5,0-4.8-1.9-4.8-5.2v-8.4h2.3v7.4c0,2.3,0.2,4.4,3.1,4.4
			c2.8,0,3.7-2.3,3.7-4.7v-7.1h2.3v6.5c0,2.3,0,4.6,0.1,6.9L133.1,62.7L133.1,62.7z"/>
		<path d="M145.3,51.4c-2.8,0-3.7,1.5-3.7,4.1v7.2h-2.3v-9.5c0-1.3-0.1-2.6-0.1-3.9h2.3l0.1,2.2c1-1.5,2.3-2.2,4.1-2.2
			c0.2,0,0.5,0,0.7,0.1v2.2C146,51.4,145.6,51.4,145.3,51.4z"/>
		<path d="M160.2,53.9v5c0,5.2-0.2,9.1-6.3,9.1c-2.7,0-5.5-0.8-5.5-4.1h2.3c0,1.9,1.6,2.5,3.3,2.5c2.8,0,3.8-1.5,3.9-4.1
			c0.1-0.7,0.1-1.5,0.1-2.2c-1,1.6-2.5,2.3-4.4,2.3c-4,0-5.9-3.1-5.9-6.8c0-3.6,2-6.8,5.8-6.8c2,0,3.5,0.8,4.6,2.5
			c0-0.7,0-1.5,0-2.3h2.3C160.1,50.9,160.2,52.4,160.2,53.9z M154,50.7c-3,0-3.9,2.7-3.9,5.2s1,5.1,3.9,5.1c3,0,3.9-2.8,3.9-5.3
			C157.9,53.4,156.7,50.7,154,50.7z"/>
	</g>
	<g>
		<path class="st0" d="M221.8,6c0,0-1.7,13.7-2,22.8c-0.2,1.2-0.4,2.3-0.5,3.4c-0.4,4-0.2,8.3,0.1,12.5c-1.4-4.6-3.1-9.1-3.3-13.6
			C215.4,22.1,221.8,6,221.8,6L221.8,6z"/>
		<path d="M205.8,40.1c0,5.2-2.5,6.8-5.5,6.8s-5.5-1.7-5.5-6.8V23.2l-4.1,0.3v17.7c0,6.8,4.9,9.4,9.5,9.4s9.5-2.5,9.5-9.4v-18
			l-4.1,0.3v16.6H205.8z"/>
		<polygon points="240,49 230.3,36.8 239.8,24.9 236.4,22.8 225.5,36.8 236.1,50.7 		"/>
		<path class="st0" d="M214.5,59.4L214.5,59.4c0.2,0,0.4,0,0.6,0c0.2,0,0.4,0,0.5,0.1c0.2,0,0.4,0.1,0.5,0.1c0.2,0,0.3,0.1,0.5,0.1
			c0.2,0.1,0.3,0.1,0.5,0.1c0.2,0.1,0.3,0.1,0.5,0.1c0.2,0.1,0.3,0.1,0.5,0.2c0.2,0.1,0.3,0.1,0.5,0.2c0.2,0.1,0.3,0.1,0.5,0.2
			c0.2,0.1,0.3,0.1,0.5,0.2l0.5,0.2l0.5,0.2l0.5,0.2l0.4,0.2l0.4,0.2l0.4,0.2l0.4,0.2l0.4,0.2l0.4,0.2l0.4,0.2l0.4,0.2l0.4,0.2
			l0.4,0.2l0.4,0.2l0.4,0.2l0.4,0.2c0.1,0.1,0.2,0.1,0.3,0.1c0.1,0.1,0.2,0.1,0.3,0.1c0.1,0.1,0.2,0.1,0.3,0.1
			c0.1,0.1,0.2,0.1,0.3,0.1s0.2,0.1,0.2,0.1c0.1,0,0.2,0,0.2,0c0.1,0,0.2,0,0.3,0s0.2-0.1,0.4-0.1c0.1-0.1,0.3-0.1,0.5-0.1
			c0.2-0.1,0.3-0.1,0.6-0.1c0.2-0.1,0.4-0.1,0.6-0.2l0.6-0.2l0.7-0.2l0.7-0.2l0.8-0.3l0.8-0.3l0.9-0.3l0.9-0.4l0.9-0.4l0.9-0.4
			l0.9-0.4l0.9-0.4l0.9-0.4l0.9-0.4l0.8-0.4l0.8-0.4l0.7-0.4l0.7-0.3l0.7-0.3l0.7-0.3l0.6-0.2l0.6-0.2l0.4-0.2l0.4-0.2l0.2-0.1
			l0.2-0.1l0.2-0.1l0.2-0.1h0.2h0.2h0.2h0.2h0.2h0.2h0.2h0.2h0.2h0.2h0.2h0.2h0.2h0.2h0.2h0.2h0.2h0.2h0.2h0.2h0.2h0.2h0.2h0.2h0.2
			h0.2h0.2h0.2h0.2h0.2h0.2h0.2l-0.2,0.1l-0.2,0.1l-0.2,0.1l-0.2,0.1l-0.6,0.3l-0.6,0.3l-0.8,0.4l-0.8,0.4l-0.9,0.4l-1.5,0.4l-1,0.5
			l-1,0.5l-1.2,0.6l-1.2,0.6l-1.2,0.6l-1.2,0.6l-1.2,0.6l-1.2,0.6l-1.2,0.6l-1.2,0.6l-1.2,0.5l-1.1,0.5l-1.1,0.5l-1,0.4l-1,0.4
			l-0.9,0.4l-0.8,0.3c-0.2,0.1-0.5,0.2-0.7,0.2c-0.2,0.1-0.4,0.1-0.7,0.2c-0.2,0.1-0.4,0.1-0.6,0.2c-0.2,0.1-0.3,0.1-0.4,0.1
			c-0.1,0-0.2,0.1-0.3,0.1s-0.2,0-0.3,0s-0.2,0-0.3-0.1c-0.1,0-0.2-0.1-0.3-0.1c-0.1-0.1-0.2-0.1-0.4-0.1c-0.1-0.1-0.2-0.1-0.4-0.1
			c-0.1-0.1-0.2-0.1-0.4-0.1c-0.1-0.1-0.2-0.1-0.4-0.2l-0.4-0.2l-0.4-0.2l-0.4-0.2l-0.4-0.2l-0.4-0.2l-0.4-0.2l-0.4-0.2l-0.4-0.2
			l-0.4-0.2l-0.4-0.2l-0.4-0.2l-0.4-0.2l-0.4-0.2l-0.4-0.2l-0.4-0.2l-0.5-0.2c-0.1-0.1-0.3-0.1-0.5-0.2c-0.2-0.1-0.3-0.1-0.5-0.2
			c-0.2-0.1-0.3-0.1-0.5-0.2c-0.2-0.1-0.3-0.1-0.5-0.1c-0.2-0.1-0.3-0.1-0.5-0.1c-0.2-0.1-0.3-0.1-0.5-0.1s-0.3-0.1-0.5-0.1
			s-0.3-0.1-0.5-0.1s-0.4,0-0.5,0c-0.2,0-0.4,0-0.5,0c-0.2,0-0.3,0.1-0.5,0.1s-0.3,0.1-0.5,0.1c-0.2,0.1-0.3,0.1-0.5,0.1
			c-0.2,0.1-0.3,0.1-0.5,0.1c-0.2,0.1-0.3,0.1-0.5,0.1c-0.2,0.1-0.3,0.1-0.5,0.2c-0.2,0.1-0.3,0.1-0.5,0.2c-0.2,0.1-0.3,0.1-0.5,0.2
			l-0.5,0.2l-0.4,0.2l-0.4,0.2l-0.4,0.2l-0.4,0.2l-0.4,0.2l-0.4,0.2l-0.4,0.2l-0.4,0.2l-0.4,0.2l-0.4,0.2l-0.4,0.2l-0.4,0.2
			l-0.4,0.2l-0.4,0.2l-0.4,0.2c-0.1,0.1-0.2,0.1-0.4,0.2c-0.1,0.1-0.2,0.1-0.4,0.1c-0.1,0.1-0.2,0.1-0.4,0.1
			c-0.1,0.1-0.2,0.1-0.4,0.1c-0.1,0.1-0.2,0.1-0.3,0.1s-0.2,0.1-0.3,0.1s-0.2,0-0.3,0s-0.2,0-0.3-0.1c-0.1,0-0.2-0.1-0.4-0.1
			c-0.2-0.1-0.4-0.1-0.6-0.2c-0.2-0.1-0.4-0.1-0.7-0.2c-0.2-0.1-0.5-0.2-0.7-0.2l-0.8-0.3l-0.9-0.4l-1-0.4l-1-0.4l-1.1-0.4l-1.1-0.5
			l-1.2-0.5l-1.2-0.5l-1.2-0.6l-1.2-0.6l-1.2-0.6l-1.2-0.6l-1.2-0.6l-1.2-0.6l-1.2-0.6l-1-0.5l-1-0.5l-0.9-0.4l-0.9-0.4l-0.8-0.4
			l-0.8-0.4l-0.6-0.3l-0.6-0.3l-0.2-0.1l-0.2-0.1l-0.2-0.1l-0.2-0.1h0.2h0.2h0.2h0.2h0.2h0.2h0.2h0.2h0.2h0.2h0.2h0.2h0.2h0.2h0.2
			h0.2h0.2h0.2h0.2h0.2h0.2h0.2h0.2h0.2h0.2h0.2h0.2h0.2h0.2h0.2h0.2h0.2l0.2,0.1l0.2,0.1l0.2,0.1l0.2,0.1l0.4,0.2l0.4,0.2l0.6,0.2
			l0.6,0.2l0.7,0.3l0.7,0.3l0.7,0.4l0.7,0.4l0.8,0.4l0.8,0.4l0.9,0.4l0.9,0.4l0.9,0.4l0.9,0.4l0.9,0.4l0.9,0.4l0.9,0.4l0.9,0.3
			l0.8,0.3l0.8,0.3l0.7,0.2l0.7,0.2l0.6,0.2c0.2,0.1,0.4,0.1,0.6,0.2c0.2,0.1,0.4,0.1,0.6,0.1c0.2,0.1,0.3,0.1,0.5,0.1
			c0.1,0.1,0.2,0.1,0.4,0.1c0.1,0,0.2,0,0.3,0s0.2,0,0.2,0c0.1,0,0.2,0,0.2-0.1c0.1,0,0.2-0.1,0.3-0.1s0.2-0.1,0.3-0.1
			c0.1-0.1,0.2-0.1,0.3-0.1c0.1-0.1,0.2-0.1,0.3-0.1l0.4-0.2l0.4-0.2l0.4-0.2l0.4-0.2l0.4-0.2l0.4-0.2l0.4-0.2l0.4-0.2l0.4-0.2
			l0.4-0.2l0.4-0.2l0.4-0.2l0.4-0.2l0.5-0.2l0.5-0.2l0.5-0.2c0.2-0.1,0.3-0.1,0.5-0.2c0.2-0.1,0.3-0.1,0.5-0.2
			c0.2-0.1,0.3-0.1,0.5-0.2c0.2-0.1,0.3-0.1,0.5-0.2c0.2-0.1,0.3-0.1,0.5-0.1c0.2-0.1,0.3-0.1,0.5-0.1c0.2-0.1,0.4-0.1,0.5-0.1
			c0.2,0,0.4-0.1,0.5-0.1c0.2,0,0.4-0.1,0.5-0.1C214.2,59.3,214.4,59.3,214.5,59.4L214.5,59.4z"/>
		<path class="st1" d="M221.2,32.6c1.4,4.8,3.4,10.7,3.7,17c0.6,10-10,25-10,25s5.7-13.5,6.6-22.4c0.1-1.4,0.1-2.6,0-4
			C221.7,42.5,221.4,37,221.2,32.6L221.2,32.6z"/>
	</g>
</g>
</svg>
